<?xml version="1.0" encoding="UTF-8"?> <svg xmlns="http://www.w3.org/2000/svg" viewBox="0 0 520 520"><defs><style>.cls-1{fill:none;}.cls-2{fill:#af2825;}.cls-3{fill:#cd2027;}</style></defs><title>favicon</title><g id="Layer_2" data-name="Layer 2"><g id="Layer_1-2" data-name="Layer 1"><rect class="cls-1" width="520" height="520"></rect><path class="cls-1" d="M260,33.66a725.15,725.15,0,0,0-99.4,6.77,640.39,640.39,0,0,0-80.85,16.5V272.64c0,28.92,9.46,58.29,28.12,87.3,15.34,23.84,36.84,47.47,63.91,70.25a521.35,521.35,0,0,0,64.84,46.12c10.17,6.13,18.31,10.58,23.38,13.26,5.07-2.67,13.19-7.12,23.37-13.26a520.28,520.28,0,0,0,64.84-46.12c27.08-22.78,48.58-46.41,63.91-70.25,18.67-29,28.13-58.38,28.13-87.3V56.93a640.91,640.91,0,0,0-80.86-16.5A724.9,724.9,0,0,0,260,33.66Zm163.1,239c0,25.57-8.54,51.82-25.4,78-14.4,22.39-34.76,44.73-60.52,66.4a504.45,504.45,0,0,1-62.67,44.56C269,465,264.1,467.78,260,470.06c-3.93-2.19-8.62-4.88-13.88-8.05l-.64-.38c-.61-.37-1.31-.81-1.95-1.19C192.86,429.86,159.66,399.28,138,372c-1.5-1.88-2.94-3.74-4.34-5.59-4.05-5.25-7.91-10.51-11.29-15.77-10.64-16.54-17.95-33.09-21.91-49.48-4.09-15.72-3.5-25.1-3.5-25.1V70.16q7.47-1.87,15-3.52c1.93-.43,3.88-.83,5.83-1.24l2.54-.52q5.67-1.15,11.31-2.18c10.36-2,20.81-3.81,31.42-5.28a697.76,697.76,0,0,1,74.84-6.13l6.25-.22c10-.31,15.94-.27,15.94-.27a706.41,706.41,0,0,1,97,6.62,632.22,632.22,0,0,1,66.07,12.74Z"></path><path class="cls-2" d="M454.64,43.18a653.36,653.36,0,0,0-92.86-19.73,749.51,749.51,0,0,0-203.52,0A653.21,653.21,0,0,0,65.39,43.18L62.62,44V272.64c0,32.26,10.38,64.75,30.85,96.58,16.27,25.28,38.91,50.21,67.3,74.09a538.23,538.23,0,0,0,67,47.68c18.09,10.91,30,16.73,30.55,17l1.68.82,1.68-.82c.5-.24,12.46-6.06,30.55-17a539.72,539.72,0,0,0,67-47.68c28.39-23.88,51-48.81,67.29-74.09,20.47-31.83,30.85-64.32,30.85-96.58V44ZM440.27,272.64c0,28.92-9.46,58.29-28.13,87.3-15.33,23.84-36.83,47.47-63.91,70.25a520.28,520.28,0,0,1-64.84,46.12c-10.18,6.14-18.3,10.59-23.37,13.26-5.07-2.68-13.21-7.13-23.38-13.26a521.35,521.35,0,0,1-64.84-46.12c-27.07-22.78-48.57-46.41-63.91-70.25-18.66-29-28.12-58.38-28.12-87.3V56.93a640.39,640.39,0,0,1,80.85-16.5,733,733,0,0,1,198.79,0,640.91,640.91,0,0,1,80.86,16.5Z"></path><path class="cls-2" d="M163,57.42c-10.61,1.47-21.06,3.3-31.42,5.28,42.49-7.78,82.52-10.48,106.26-11.41A697.76,697.76,0,0,0,163,57.42Z"></path><path class="cls-2" d="M260,470.06c-4.78-2.68-9.37-5.36-13.88-8.05C251.4,465.18,256.09,467.87,260,470.06Z"></path><path class="cls-2" d="M122.32,350.67c3.38,5.26,7.24,10.52,11.29,15.77-19.81-26.3-29-49.12-33.2-65.25C104.37,317.58,111.68,334.13,122.32,350.67Z"></path><path class="cls-3" d="M244.08,51.07c5.31-.12,10.62-.27,15.94-.27C260,50.8,254.13,50.76,244.08,51.07Z"></path><path class="cls-3" d="M96.91,276.09s-.59,9.38,3.5,25.1a121.07,121.07,0,0,1-3.5-28.55Z"></path><path class="cls-3" d="M138,372c21.71,27.25,54.91,57.83,105.6,88.41a502.09,502.09,0,0,1-60.71-43.37A339.52,339.52,0,0,1,138,372Z"></path><path class="cls-2" d="M260,50.8V97.92c.25-.46.5-.89.68-1.23,4.28,8.58,19.1,38.24,22.54,45.27,1.2,2.45,2.51,3.28,5.6,2,9.28-3.93,18.74-7.5,28.87-11.5-6.87,28.55-13.58,56.49-20.3,84.43l1.75.88c15.22-13.57,29-28.46,44.25-42.72,3.36,7.31,6.68,14,9.44,20.79,1.43,3.55,3.51,4.2,7.17,3.32,8.42-2,28.59-6.36,30.79-6.77-2.55,10.24-9,36.49-10.07,39.87-.83,2.62.06,4.16,2.57,5.44,4.46,2.29,8.79,4.78,13.76,7.5-2.13,1.86-46.28,37.66-66.68,53.87-2.94,2.34-3.68,4.31-2,7.71,3.29,6.63,6,13.51,9.29,21.09-5.24-1-60.2-12.25-73.93-15.07q1.1,34.74,2.18,69.46c-2,.06-3.94,0-5.91,0v87.84c4.08-2.28,9-5.09,14.51-8.43a504.45,504.45,0,0,0,62.67-44.56c25.76-21.67,46.12-44,60.52-66.4,16.86-26.21,25.4-52.46,25.4-78V70.16a632.22,632.22,0,0,0-66.07-12.74A706.41,706.41,0,0,0,260,50.8Z"></path><path class="cls-3" d="M254.1,382.22q1.1-34.58,2.17-69.13c-16.09,3.53-71.54,15.69-75.44,16.4,2.73-5,8.67-16,9.28-17.21,3.66-7.15,3.66-7.15-2.65-12.49C166.68,282.22,124,245.91,123,244.86c5.06-1.56,9.67-3.1,14.37-4.39,3.59-1,4.59-2.64,3.52-6.09-3.8-12.2-11.31-38.72-11.64-40.26,8.93,1.44,17.43,2.88,25.95,4.16,10.19,1.54,8.52,2.56,12.2-6.53,2-5,4.08-9.91,6.41-15.57l46.33,44.36,1.75-.81c-5.8-29-13.24-57.76-19.87-87.61,6.21,2.54,24.61,10,28.33,11.6,2.3,1,3.71.54,4.85-1.5,4.85-8.71,20.19-36,24.86-44.3V50.8c-5.32,0-10.63.15-15.94.27-2.09,0-4.16.16-6.25.22-23.74.93-63.77,3.63-106.26,11.41-3.77.72-7.57,1.4-11.31,2.18l-2.54.52c-2,.41-3.9.81-5.83,1.24q-7.5,1.65-15,3.52V272.64a121.07,121.07,0,0,0,3.5,28.55c4.19,16.13,13.39,38.95,33.2,65.25,1.44,1.86,2.82,3.73,4.34,5.59a339.52,339.52,0,0,0,44.89,45,502.09,502.09,0,0,0,60.71,43.37c.88.52,1.71,1.05,2.59,1.57,4.51,2.69,9.1,5.37,13.88,8.05V382.22C258.05,382.22,256.07,382.28,254.1,382.22Z"></path><path class="cls-3" d="M120.26,64.88c3.74-.78,7.54-1.46,11.31-2.18Q125.93,63.74,120.26,64.88Z"></path><path class="cls-3" d="M237.83,51.29c2.09-.06,4.16-.17,6.25-.22Z"></path><path class="cls-3" d="M138,372c-1.52-1.86-2.9-3.73-4.34-5.59C135,368.29,136.45,370.15,138,372Z"></path><path class="cls-3" d="M245.5,461.63l.64.38c-.88-.52-1.71-1.05-2.59-1.57C244.19,460.82,244.89,461.26,245.5,461.63Z"></path></g></g></svg> 